<svg width="1440" height="786" viewBox="0 0 1440 786" fill="none" xmlns="http://www.w3.org/2000/svg">
<g opacity="0.3">
<path d="M187.5 92C236.929 92 277 51.9295 277 2.5C277 -46.9295 236.929 -87 187.5 -87C138.071 -87 98 -46.9295 98 2.5C98 51.9295 138.071 92 187.5 92Z" fill="#3E5BCB" fill-opacity="0.8"/>
<path d="M1408.5 727C1457.93 727 1498 686.929 1498 637.5C1498 588.071 1457.93 548 1408.5 548C1359.07 548 1319 588.071 1319 637.5C1319 686.929 1359.07 727 1408.5 727Z" fill="#3E5BCB" fill-opacity="0.8"/>
<path d="M40.5 397C89.9295 397 130 356.929 130 307.5C130 258.071 89.9295 218 40.5 218C-8.92948 218 -49 258.071 -49 307.5C-49 356.929 -8.92948 397 40.5 397Z" fill="#25336C"/>
<path d="M98 92C122.853 92 143 71.8528 143 47C143 22.1472 122.853 2 98 2C73.1472 2 53 22.1472 53 47C53 71.8528 73.1472 92 98 92Z" fill="#3E5BCB" fill-opacity="0.7"/>
<path d="M1239 735C1263.85 735 1284 714.853 1284 690C1284 665.147 1263.85 645 1239 645C1214.15 645 1194 665.147 1194 690C1194 714.853 1214.15 735 1239 735Z" fill="#3E5BCB" fill-opacity="0.7"/>
<path d="M997 137C1021.85 137 1042 116.853 1042 92C1042 67.1472 1021.85 47 997 47C972.147 47 952 67.1472 952 92C952 116.853 972.147 137 997 137Z" fill="#3E5BCB" fill-opacity="0.7"/>
<path d="M188 473C212.853 473 233 452.853 233 428C233 403.147 212.853 383 188 383C163.147 383 143 403.147 143 428C143 452.853 163.147 473 188 473Z" fill="#3E5BCB" fill-opacity="0.7"/>
<path d="M1029 291C1053.85 291 1074 270.853 1074 246C1074 221.147 1053.85 201 1029 201C1004.15 201 984 221.147 984 246C984 270.853 1004.15 291 1029 291Z" fill="#3E5BCB" fill-opacity="0.1"/>
<path d="M655 47C679.853 47 700 26.8528 700 2C700 -22.8528 679.853 -43 655 -43C630.147 -43 610 -22.8528 610 2C610 26.8528 630.147 47 655 47Z" fill="#3E5BCB" fill-opacity="0.1"/>
<path d="M727 83C751.853 83 772 62.8528 772 38C772 13.1472 751.853 -7 727 -7C702.147 -7 682 13.1472 682 38C682 62.8528 702.147 83 727 83Z" fill="#3E5BCB" fill-opacity="0.1"/>
<path d="M220 627C244.853 627 265 606.853 265 582C265 557.147 244.853 537 220 537C195.147 537 175 557.147 175 582C175 606.853 195.147 627 220 627Z" fill="#3E5BCB" fill-opacity="0.1"/>
<path d="M850 690C874.853 690 895 669.853 895 645C895 620.147 874.853 600 850 600C825.147 600 805 620.147 805 645C805 669.853 825.147 690 850 690Z" fill="#3E5BCB" fill-opacity="0.7"/>
<path d="M417 263C441.853 263 462 242.853 462 218C462 193.147 441.853 173 417 173C392.147 173 372 193.147 372 218C372 242.853 392.147 263 417 263Z" fill="#3E5BCB" fill-opacity="0.7"/>
<path d="M1268 442C1292.85 442 1313 421.853 1313 397C1313 372.147 1292.85 352 1268 352C1243.15 352 1223 372.147 1223 397C1223 421.853 1243.15 442 1268 442Z" fill="#3E5BCB" fill-opacity="0.7"/>
<path d="M459 756C471.703 756 482 745.703 482 733C482 720.297 471.703 710 459 710C446.297 710 436 720.297 436 733C436 745.703 446.297 756 459 756Z" fill="#3E5BCB" fill-opacity="0.7"/>
<path d="M363 773C375.703 773 386 762.703 386 750C386 737.297 375.703 727 363 727C350.297 727 340 737.297 340 750C340 762.703 350.297 773 363 773Z" fill="#25336C"/>
<path d="M748 687C759.598 687 769 677.598 769 666C769 654.402 759.598 645 748 645C736.402 645 727 654.402 727 666C727 677.598 736.402 687 748 687Z" fill="#3E5BCB" fill-opacity="0.7"/>
<path d="M1166 439C1177.6 439 1187 429.598 1187 418C1187 406.402 1177.6 397 1166 397C1154.4 397 1145 406.402 1145 418C1145 429.598 1154.4 439 1166 439Z" fill="#3E5BCB" fill-opacity="0.7"/>
<path d="M1208 739C1219.6 739 1229 729.598 1229 718C1229 706.402 1219.6 697 1208 697C1196.4 697 1187 706.402 1187 718C1187 729.598 1196.4 739 1208 739Z" fill="#3E5BCB" fill-opacity="0.7"/>
<path d="M805 919C862.99 919 910 871.99 910 814C910 756.01 862.99 709 805 709C747.01 709 700 756.01 700 814C700 871.99 747.01 919 805 919Z" fill="#3E5BCB" fill-opacity="0.2"/>
<path d="M1184 353C1208.85 353 1229 332.853 1229 308C1229 283.147 1208.85 263 1184 263C1159.15 263 1139 283.147 1139 308C1139 332.853 1159.15 353 1184 353Z" fill="#25336C"/>
<path d="M983 727C1003.43 727 1020 710.435 1020 690C1020 669.565 1003.43 653 983 653C962.565 653 946 669.565 946 690C946 710.435 962.565 727 983 727Z" fill="#25336C"/>
<path d="M1259 618C1279.43 618 1296 601.435 1296 581C1296 560.565 1279.43 544 1259 544C1238.57 544 1222 560.565 1222 581C1222 601.435 1238.57 618 1259 618Z" fill="#25336C"/>
<path d="M1184 159C1245.86 159 1296 108.856 1296 47C1296 -14.8559 1245.86 -65 1184 -65C1122.14 -65 1072 -14.8559 1072 47C1072 108.856 1122.14 159 1184 159Z" fill="#3E5BCB" fill-opacity="0.7"/>
<path d="M53 854C114.856 854 165 803.856 165 742C165 680.144 114.856 630 53 630C-8.85589 630 -59 680.144 -59 742C-59 803.856 -8.85589 854 53 854Z" fill="#3E5BCB" fill-opacity="0.7"/>
<path d="M493.5 649C542.929 649 583 608.929 583 559.5C583 510.071 542.929 470 493.5 470C444.071 470 404 510.071 404 559.5C404 608.929 444.071 649 493.5 649Z" fill="#25336C" fill-opacity="0.3"/>
</g>
</svg>
