<svg width="24" height="24" viewBox="0 0 24 24" fill="none" xmlns="http://www.w3.org/2000/svg">
<path d="M0 7.92857V1.28571C0 0.573214 0.573214 0 1.28571 0H7.92857C8.28214 0 8.57143 0.289286 8.57143 0.642857V2.78571C8.57143 3.13929 8.28214 3.42857 7.92857 3.42857H3.42857V7.92857C3.42857 8.28214 3.13929 8.57143 2.78571 8.57143H0.642857C0.289286 8.57143 0 8.28214 0 7.92857ZM15.4286 0.642857V2.78571C15.4286 3.13929 15.7179 3.42857 16.0714 3.42857H20.5714V7.92857C20.5714 8.28214 20.8607 8.57143 21.2143 8.57143H23.3571C23.7107 8.57143 24 8.28214 24 7.92857V1.28571C24 0.573214 23.4268 0 22.7143 0H16.0714C15.7179 0 15.4286 0.289286 15.4286 0.642857ZM23.3571 15.4286H21.2143C20.8607 15.4286 20.5714 15.7179 20.5714 16.0714V20.5714H16.0714C15.7179 20.5714 15.4286 20.8607 15.4286 21.2143V23.3571C15.4286 23.7107 15.7179 24 16.0714 24H22.7143C23.4268 24 24 23.4268 24 22.7143V16.0714C24 15.7179 23.7107 15.4286 23.3571 15.4286ZM8.57143 23.3571V21.2143C8.57143 20.8607 8.28214 20.5714 7.92857 20.5714H3.42857V16.0714C3.42857 15.7179 3.13929 15.4286 2.78571 15.4286H0.642857C0.289286 15.4286 0 15.7179 0 16.0714V22.7143C0 23.4268 0.573214 24 1.28571 24H7.92857C8.28214 24 8.57143 23.7107 8.57143 23.3571Z" fill="white"/>
</svg>
