<svg width="18" height="20" viewBox="0 0 18 20" fill="none" xmlns="http://www.w3.org/2000/svg">
<g clip-path="url(#clip0)">
<path d="M8.82353 10C11.6085 10 13.8655 7.76172 13.8655 5C13.8655 2.23828 11.6085 0 8.82353 0C6.0386 0 3.78151 2.23828 3.78151 5C3.78151 7.76172 6.0386 10 8.82353 10ZM12.3529 11.25H11.6951C10.8206 11.6484 9.84769 11.875 8.82353 11.875C7.79937 11.875 6.83036 11.6484 5.95194 11.25H5.29412C2.37132 11.25 0 13.6016 0 16.5V18.125C0 19.1602 0.846901 20 1.89076 20H15.7563C16.8002 20 17.6471 19.1602 17.6471 18.125V16.5C17.6471 13.6016 15.2757 11.25 12.3529 11.25Z" fill="white"/>
</g>
<defs>
<clipPath id="clip0">
<rect width="17.6471" height="20" fill="white"/>
</clipPath>
</defs>
</svg>
