<svg width="44" height="41" viewBox="0 0 44 41" fill="none" xmlns="http://www.w3.org/2000/svg">
<path d="M2.5479 30.481C3.19131 29.3171 4.67244 28.9154 5.7913 29.5614L10.1417 32.0731L10.3789 31.6623L1.58884 26.5874C0.46997 25.9414 0.0772211 24.4579 0.76351 23.3188C1.4286 22.2147 2.83224 21.8278 3.92122 22.4565L12.7507 27.5542L12.9879 27.1434L2.25238 20.9453C1.13351 20.2993 0.740766 18.8158 1.42705 17.6766C2.09206 16.5727 3.49577 16.1858 4.58475 16.8145L15.3597 23.0354L15.5968 22.6247L6.85663 17.5785C5.73776 16.9325 5.34501 15.449 6.0313 14.3098C6.69631 13.2059 8.10002 12.819 9.189 13.4477L20.9612 20.2444L19.7286 17.3659C19.2226 16.1841 19.7672 14.7858 20.9451 14.2425C22.1229 13.6993 23.4879 14.217 23.994 15.3987L28.8855 26.8224C29.0589 27.2274 29.1344 27.6707 29.1057 28.1161C29.0771 28.5615 28.9452 28.9963 28.7207 29.3851L22.8627 39.5316C22.2023 40.6753 20.8642 41.2275 19.6314 40.8651L13.2256 38.9816C12.4062 38.7406 11.6193 38.4036 10.8807 37.9772L3.38012 33.6468C2.29118 33.018 1.92438 31.6089 2.5479 30.481ZM17.0314 17.2086L19.5751 18.6772L19.1316 17.6412C18.3948 15.9207 19.41 13.8827 21.2568 13.4489L21.0418 11.724C20.879 10.4184 19.686 9.48704 18.398 9.70993C17.1498 9.92591 16.2718 11.1133 16.4301 12.384L17.0314 17.2086ZM36.9035 28.4801L42.8819 17.3185C43.5003 16.1638 43.0914 14.7425 41.9685 14.1437C40.8455 13.545 39.4339 13.9957 38.8155 15.1504L37.3092 17.963L35.597 4.22566C35.4386 2.95491 34.3031 2.07624 33.0489 2.24379C31.7547 2.41668 30.8341 3.67205 30.9969 4.9777L32.2681 15.1768L31.8074 15.2474L30.2403 2.67382C30.0819 1.40307 28.9463 0.524402 27.6922 0.691947C26.3979 0.864837 25.4774 2.1202 25.6401 3.42586L27.2016 15.9534L26.741 16.024L25.4568 5.72066C25.2984 4.44991 24.1628 3.57124 22.9086 3.73879C21.6144 3.91168 20.6939 5.16705 20.8566 6.4727L21.7172 13.3774C22.9327 13.2876 24.0902 13.9533 24.5912 15.1233L29.4827 26.5469C29.915 27.5567 29.8391 28.7383 29.2794 29.7076L28.5739 30.9297L34.812 29.9735C35.2479 29.9067 35.6646 29.7365 36.0281 29.477C36.3916 29.2175 36.6916 28.8759 36.9035 28.4801Z" fill="white"/>
</svg>
