<svg width="295" height="151" viewBox="0 0 295 151" fill="none" xmlns="http://www.w3.org/2000/svg">
<g filter="url(#filter0_di)">
<rect x="40" y="15" width="214.538" height="70.8719" rx="12" fill="url(#paint0_linear)"/>
<path d="M71.5489 61.481C72.1923 60.3171 73.6734 59.9154 74.7923 60.5614L79.1427 63.0731L79.3798 62.6623L70.5898 57.5874C69.4709 56.9414 69.0782 55.4579 69.7645 54.3188C70.4296 53.2147 71.8332 52.8278 72.9222 53.4565L81.7517 58.5542L81.9888 58.1434L71.2534 51.9453C70.1345 51.2993 69.7417 49.8158 70.428 48.6766C71.093 47.5727 72.4967 47.1858 73.5857 47.8145L84.3607 54.0354L84.5978 53.6247L75.8576 48.5785C74.7387 47.9325 74.346 46.449 75.0323 45.3098C75.6973 44.2059 77.101 43.819 78.19 44.4477L89.9622 51.2444L88.7296 48.3659C88.2235 47.1841 88.7682 45.7858 89.9461 45.2425C91.1239 44.6993 92.4889 45.217 92.995 46.3987L97.8865 57.8224C98.0599 58.2274 98.1353 58.6707 98.1067 59.1161C98.0781 59.5615 97.9461 59.9963 97.7217 60.3851L91.8636 70.5316C91.2033 71.6753 89.8652 72.2275 88.6324 71.8651L82.2266 69.9816C81.4071 69.7406 80.6202 69.4036 79.8816 68.9772L72.3811 64.6468C71.2922 64.018 70.9254 62.6089 71.5489 61.481ZM86.0324 48.2086L88.5761 49.6772L88.1325 48.6412C87.3958 46.9207 88.411 44.8827 90.2577 44.4489L90.0427 42.724C89.88 41.4184 88.687 40.487 87.399 40.7099C86.1508 40.9259 85.2727 42.1133 85.4311 43.384L86.0324 48.2086ZM105.905 59.4801L111.883 48.3185C112.501 47.1638 112.092 45.7425 110.969 45.1437C109.846 44.545 108.435 44.9957 107.816 46.1504L106.31 48.963L104.598 35.2257C104.44 33.9549 103.304 33.0762 102.05 33.2438C100.756 33.4167 99.8351 34.672 99.9978 35.9777L101.269 46.1768L100.808 46.2474L99.2413 33.6738C99.0829 32.4031 97.9473 31.5244 96.6931 31.6919C95.3989 31.8648 94.4784 33.1202 94.6411 34.4259L96.2026 46.9534L95.7419 47.024L94.4577 36.7207C94.2993 35.4499 93.1638 34.5712 91.9096 34.7388C90.6154 34.9117 89.6949 36.167 89.8576 37.4727L90.7182 44.3774C91.9337 44.2876 93.0912 44.9533 93.5922 46.1233L98.4836 57.5469C98.916 58.5567 98.84 59.7383 98.2804 60.7076L97.5749 61.9297L103.813 60.9735C104.249 60.9067 104.666 60.7365 105.029 60.477C105.393 60.2175 105.693 59.8759 105.905 59.4801Z" fill="white"/>
<path d="M129.243 62.436C128.752 62.436 128.326 62.2547 127.963 61.892C127.622 61.5294 127.451 61.1027 127.451 60.612V40.9C127.451 40.4094 127.622 39.9827 127.963 39.62C128.326 39.2574 128.752 39.076 129.243 39.076H131.611C132.102 39.076 132.518 39.2574 132.859 39.62C133.222 39.9827 133.403 40.4094 133.403 40.9V60.612C133.403 61.1027 133.222 61.5294 132.859 61.892C132.518 62.2547 132.102 62.436 131.611 62.436H129.243ZM140.224 62.436C139.734 62.436 139.307 62.2547 138.944 61.892C138.603 61.5294 138.432 61.1027 138.432 60.612V47.62C138.432 47.1294 138.603 46.7027 138.944 46.34C139.307 45.9774 139.734 45.796 140.224 45.796H141.536C142.048 45.796 142.475 45.9774 142.816 46.34C143.179 46.6814 143.371 47.108 143.392 47.62L143.424 47.876C143.424 47.8974 143.435 47.908 143.456 47.908L143.52 47.844C144.907 46.2654 146.571 45.476 148.512 45.476C150.454 45.476 151.851 46.0307 152.704 47.14C153.558 48.228 153.984 50.0947 153.984 52.74V60.612C153.984 61.1027 153.803 61.5294 153.44 61.892C153.099 62.2547 152.683 62.436 152.192 62.436H150.784C150.294 62.436 149.867 62.2547 149.504 61.892C149.142 61.5294 148.96 61.1027 148.96 60.612V52.9C148.96 51.62 148.79 50.7454 148.448 50.276C148.107 49.7854 147.488 49.54 146.592 49.54C145.846 49.54 145.152 49.8494 144.512 50.468C143.894 51.0654 143.584 51.716 143.584 52.42V60.612C143.584 61.1027 143.403 61.5294 143.04 61.892C142.699 62.2547 142.283 62.436 141.792 62.436H140.224ZM160.681 62.436C160.191 62.436 159.764 62.2547 159.401 61.892C159.039 61.5294 158.857 61.1027 158.857 60.612V47.62C158.857 47.1294 159.039 46.7027 159.401 46.34C159.764 45.9774 160.191 45.796 160.681 45.796H162.473C162.964 45.796 163.391 45.9774 163.753 46.34C164.116 46.7027 164.297 47.1294 164.297 47.62V60.612C164.297 61.1027 164.116 61.5294 163.753 61.892C163.391 62.2547 162.964 62.436 162.473 62.436H160.681ZM160.681 42.596C160.191 42.596 159.764 42.4147 159.401 42.052C159.039 41.6894 158.857 41.2627 158.857 40.772V40.26C158.857 39.7694 159.039 39.3427 159.401 38.98C159.764 38.6174 160.191 38.436 160.681 38.436H162.473C162.964 38.436 163.391 38.6174 163.753 38.98C164.116 39.3427 164.297 39.7694 164.297 40.26V40.772C164.297 41.2627 164.116 41.6894 163.753 42.052C163.391 42.4147 162.964 42.596 162.473 42.596H160.681ZM176.731 62.756C173.979 62.756 171.867 62.0307 170.395 60.58C168.923 59.1294 168.187 56.9747 168.187 54.116C168.187 51.3214 168.891 49.188 170.299 47.716C171.729 46.2227 173.766 45.476 176.411 45.476C177.286 45.476 178.449 45.572 179.899 45.764C180.433 45.8494 180.859 46.0947 181.179 46.5C181.521 46.884 181.691 47.3427 181.691 47.876V48.196C181.691 48.644 181.51 49.0067 181.147 49.284C180.785 49.5614 180.379 49.6574 179.931 49.572C179.057 49.4227 178.15 49.348 177.211 49.348C175.995 49.348 175.089 49.732 174.491 50.5C173.915 51.2467 173.627 52.452 173.627 54.116C173.627 55.8227 173.937 57.0494 174.555 57.796C175.195 58.5214 176.187 58.884 177.531 58.884C178.534 58.884 179.43 58.7987 180.219 58.628C180.667 58.5214 181.062 58.6067 181.403 58.884C181.766 59.1614 181.947 59.524 181.947 59.972V60.292C181.947 60.8254 181.777 61.3054 181.435 61.732C181.094 62.1374 180.667 62.3827 180.155 62.468C178.982 62.66 177.841 62.756 176.731 62.756ZM188.65 62.436C188.159 62.436 187.733 62.2547 187.37 61.892C187.007 61.5294 186.826 61.1027 186.826 60.612V47.62C186.826 47.1294 187.007 46.7027 187.37 46.34C187.733 45.9774 188.159 45.796 188.65 45.796H190.442C190.933 45.796 191.359 45.9774 191.722 46.34C192.085 46.7027 192.266 47.1294 192.266 47.62V60.612C192.266 61.1027 192.085 61.5294 191.722 61.892C191.359 62.2547 190.933 62.436 190.442 62.436H188.65ZM188.65 42.596C188.159 42.596 187.733 42.4147 187.37 42.052C187.007 41.6894 186.826 41.2627 186.826 40.772V40.26C186.826 39.7694 187.007 39.3427 187.37 38.98C187.733 38.6174 188.159 38.436 188.65 38.436H190.442C190.933 38.436 191.359 38.6174 191.722 38.98C192.085 39.3427 192.266 39.7694 192.266 40.26V40.772C192.266 41.2627 192.085 41.6894 191.722 42.052C191.359 42.4147 190.933 42.596 190.442 42.596H188.65ZM205.116 54.82C202.513 54.82 201.212 55.62 201.212 57.22C201.212 57.796 201.383 58.2547 201.724 58.596C202.065 58.916 202.524 59.076 203.1 59.076C204.124 59.076 204.956 58.756 205.596 58.116C206.236 57.4547 206.556 56.58 206.556 55.492V55.108C206.556 54.916 206.46 54.82 206.268 54.82H205.116ZM201.532 62.756C200.06 62.756 198.844 62.2867 197.884 61.348C196.945 60.388 196.476 59.1507 196.476 57.636C196.476 53.7534 199.356 51.812 205.116 51.812H206.268C206.46 51.812 206.556 51.7267 206.556 51.556V51.396C206.556 50.5854 206.343 49.9987 205.916 49.636C205.511 49.2734 204.817 49.092 203.836 49.092C202.535 49.092 200.977 49.2947 199.164 49.7C198.716 49.7854 198.311 49.6894 197.948 49.412C197.607 49.1347 197.436 48.772 197.436 48.324V48.26C197.436 47.7267 197.596 47.2467 197.916 46.82C198.257 46.372 198.684 46.1054 199.196 46.02C201.073 45.6574 202.695 45.476 204.06 45.476C206.855 45.476 208.828 45.9774 209.98 46.98C211.153 47.9827 211.74 49.6467 211.74 51.972V60.612C211.74 61.1027 211.559 61.5294 211.196 61.892C210.833 62.2547 210.407 62.436 209.916 62.436H208.732C208.22 62.436 207.783 62.2654 207.42 61.924C207.057 61.5614 206.865 61.124 206.844 60.612V60.26C206.844 60.2387 206.833 60.228 206.812 60.228C206.769 60.228 206.748 60.2387 206.748 60.26C205.404 61.924 203.665 62.756 201.532 62.756ZM217.599 62.436C217.109 62.436 216.682 62.2547 216.319 61.892C215.978 61.5294 215.807 61.1027 215.807 60.612V47.62C215.807 47.1294 215.978 46.7027 216.319 46.34C216.682 45.9774 217.109 45.796 217.599 45.796H219.167C219.658 45.796 220.074 45.9774 220.415 46.34C220.778 46.7027 220.959 47.1294 220.959 47.62V48.964C220.959 48.9854 220.97 48.996 220.991 48.996C221.034 48.996 221.055 48.9854 221.055 48.964C222.378 47.1934 224.223 46.1587 226.591 45.86C227.082 45.796 227.498 45.9454 227.839 46.308C228.202 46.6707 228.383 47.108 228.383 47.62V47.876C228.383 48.3667 228.202 48.7934 227.839 49.156C227.498 49.5187 227.071 49.7214 226.559 49.764C224.831 49.956 223.487 50.5534 222.527 51.556C221.589 52.5374 221.119 53.8174 221.119 55.396V60.612C221.119 61.1027 220.938 61.5294 220.575 61.892C220.234 62.2547 219.818 62.436 219.327 62.436H217.599Z" fill="white"/>
<rect x="41.5" y="16.5" width="211.538" height="67.8719" rx="10.5" stroke="url(#paint1_linear)" stroke-width="3"/>
</g>
<defs>
<filter id="filter0_di" x="0" y="0" width="294.538" height="150.872" filterUnits="userSpaceOnUse" color-interpolation-filters="sRGB">
<feFlood flood-opacity="0" result="BackgroundImageFix"/>
<feColorMatrix in="SourceAlpha" type="matrix" values="0 0 0 0 0 0 0 0 0 0 0 0 0 0 0 0 0 0 127 0"/>
<feOffset dy="25"/>
<feGaussianBlur stdDeviation="20"/>
<feColorMatrix type="matrix" values="0 0 0 0 0.0509804 0 0 0 0 0.588235 0 0 0 0 0.160784 0 0 0 0.35 0"/>
<feBlend mode="normal" in2="BackgroundImageFix" result="effect1_dropShadow"/>
<feBlend mode="normal" in="SourceGraphic" in2="effect1_dropShadow" result="shape"/>
<feColorMatrix in="SourceAlpha" type="matrix" values="0 0 0 0 0 0 0 0 0 0 0 0 0 0 0 0 0 0 127 0" result="hardAlpha"/>
<feOffset/>
<feGaussianBlur stdDeviation="25"/>
<feComposite in2="hardAlpha" operator="arithmetic" k2="-1" k3="1"/>
<feColorMatrix type="matrix" values="0 0 0 0 0.364706 0 0 0 0 0.956863 0 0 0 0 0.47451 0 0 0 1 0"/>
<feBlend mode="normal" in2="shape" result="effect2_innerShadow"/>
</filter>
<linearGradient id="paint0_linear" x1="40" y1="15" x2="82.2174" y2="142.797" gradientUnits="userSpaceOnUse">
<stop stop-color="#4FEC6A"/>
<stop offset="1" stop-color="#20CB3D"/>
</linearGradient>
<linearGradient id="paint1_linear" x1="40" y1="15" x2="82.2174" y2="142.797" gradientUnits="userSpaceOnUse">
<stop stop-color="#4FEC6A"/>
<stop offset="1" stop-color="#20CB3D"/>
</linearGradient>
</defs>
</svg>
