<svg width="67" height="67" viewBox="0 0 67 67" fill="none" xmlns="http://www.w3.org/2000/svg">
<circle cx="33.5" cy="33.5" r="33.5" fill="white"/>
<path d="M24.8858 14.871C24.7744 15.406 24.4042 15.8443 24.322 16.4924C25.4497 15.9822 26.506 15.4956 27.5692 15.0244C29.3865 14.2419 31.1539 13.3368 32.8605 12.3148C34.1101 11.5491 35.4812 11.3426 36.9099 11.4177C38.0536 11.478 39.1994 11.4945 40.344 11.5349C40.5614 11.503 40.7826 11.5483 40.9729 11.6635C40.8222 11.8594 40.5826 11.8624 40.403 11.9857C40.1211 12.1807 40.0283 12.389 40.4089 12.5525C41.9013 13.192 43.3243 14.0431 44.9761 14.2032C45.6119 14.2646 45.9563 14.0858 46.2592 13.4895C46.5788 12.8604 46.5765 12.1611 46.6795 11.4842C46.7129 11.2645 46.6728 10.9496 46.9466 10.929C47.1958 10.9105 47.2598 11.2136 47.3309 11.4244C47.5561 12.0911 47.7542 12.767 47.9251 13.4521C48.0198 13.8038 48.0248 14.1757 47.9395 14.5301C47.8543 14.8845 47.6819 15.209 47.4396 15.4709C46.9161 16.0925 46.215 16.5181 45.4419 16.6838C44.1252 16.9763 42.8452 17.4284 41.6274 18.0312C41.4973 18.0976 41.2945 18.0931 41.2852 18.3465C41.5732 18.405 41.8078 18.0497 42.1005 18.2255C42.0977 18.2712 42.1066 18.3344 42.0921 18.3413C41.3841 18.6699 41.4031 19.2345 41.5853 19.9022C41.8331 20.6994 41.8223 21.5606 41.5545 22.3506C40.9237 24.2034 42.1116 26.662 43.8397 27.3691C44.2683 27.529 44.6771 27.7427 45.0572 28.0055C45.3894 28.2497 45.4371 28.5164 45.209 28.8793C44.6481 29.8049 43.8562 30.5501 42.9201 31.0333C42.0758 31.461 41.9713 31.6472 42.0563 32.6413C42.0925 33.064 41.877 33.1802 41.5489 33.2165C41.4426 33.2282 41.3129 33.2165 41.2702 33.3465C41.2201 33.5002 41.3665 33.5292 41.4489 33.5844C41.6569 33.7267 41.7135 33.9131 41.556 34.1149C40.5708 35.3785 40.3785 36.9173 40.1541 38.4556C39.9851 39.6135 39.7112 39.7621 38.5955 39.6203C37.332 39.4711 36.0796 39.2315 34.8469 38.9032C34.674 38.8382 34.4844 38.8424 34.3142 38.9151C34.1441 38.9878 34.0052 39.1239 33.9242 39.2974C33.5763 39.9259 33.2697 40.5787 33.0065 41.2513C32.9543 41.3516 32.9369 41.4679 32.9575 41.5802C32.978 41.6925 33.0352 41.7937 33.119 41.8663C33.2339 41.9771 33.3266 42.1109 33.3916 42.26C33.4566 42.409 33.4927 42.5702 33.4976 42.7342C33.4976 43.2784 33.5332 43.8061 33.868 44.2599C33.904 44.3086 33.9229 44.4369 33.8958 44.4604C33.736 44.6006 33.6525 44.3691 33.5191 44.3558C33.4723 44.3058 33.4209 44.248 33.3619 44.3266C33.3506 44.3414 33.4005 44.4074 33.4222 44.4497C34.3909 45.2958 34.8289 46.4208 35.1011 47.6907C35.4598 49.3624 35.9394 51.0056 36.3673 52.6608L21.4398 52.674C21.2758 52.674 21.1082 52.6852 21 52.5142C21.3049 50.7786 22.1118 49.2971 23.0623 47.8769C24.3784 45.9108 25.3128 43.7317 26.1957 41.5256C26.3366 41.1732 26.2785 40.9597 25.9341 40.7987C25.6062 40.6452 25.5733 40.3648 25.722 40.0307C26.0301 39.3797 26.3751 38.7489 26.7552 38.1416C26.9956 37.7356 27.3732 37.7862 27.7327 37.8538C27.9713 37.8995 28.1385 37.9189 28.2471 37.6234C28.7641 36.2146 29.3433 34.8297 29.6259 33.3366C29.6818 33.0163 29.636 32.6856 29.4958 32.3953C28.2048 29.3872 26.5465 26.6417 24.3422 24.2753C23.4123 23.2482 22.6263 22.0865 22.008 20.8255C21.9524 20.7164 21.8778 20.6177 21.7939 20.483C21.5905 20.8221 21.7646 21.1133 21.7911 21.4558C21.7142 21.4191 21.6474 21.3625 21.5968 21.2913C21.5462 21.2201 21.5135 21.1367 21.5016 21.0486C21.3394 20.3953 21.5829 19.7469 21.5098 19.073C21.4307 18.3452 22.0136 17.8941 22.5445 17.4986C22.7931 17.2731 22.987 16.9883 23.11 16.668C23.4901 15.878 24.095 15.2327 24.8403 14.8223C24.8551 14.8372 24.8705 14.8545 24.8858 14.871ZM33.2216 44.0756C33.1919 44.1035 33.1472 44.1338 33.1511 44.1441C33.1711 44.1867 33.1953 44.227 33.2233 44.2642C33.2465 44.2453 33.2918 44.2186 33.2884 44.209C33.2701 44.1624 33.2477 44.1178 33.2216 44.0756Z" stroke="#31368A" stroke-width="2" stroke-linejoin="round"/>
</svg>
