<svg width="215" height="71" viewBox="0 0 215 71" fill="none" xmlns="http://www.w3.org/2000/svg">
<rect x="1.5" y="1.5" width="211.538" height="67.8719" rx="10.5" fill="url(#paint0_linear)" fill-opacity="0.2"/>
<path d="M31.5479 46.481C32.1913 45.3171 33.6724 44.9154 34.7913 45.5614L39.1417 48.0731L39.3789 47.6623L30.5888 42.5874C29.47 41.9414 29.0772 40.4579 29.7635 39.3188C30.4286 38.2147 31.8322 37.8278 32.9212 38.4565L41.7507 43.5542L41.9879 43.1434L31.2524 36.9453C30.1335 36.2993 29.7408 34.8158 30.4271 33.6766C31.0921 32.5727 32.4958 32.1858 33.5847 32.8145L44.3597 39.0354L44.5968 38.6247L35.8566 33.5785C34.7378 32.9325 34.345 31.449 35.0313 30.3098C35.6963 29.2059 37.1 28.819 38.189 29.4477L49.9612 36.2444L48.7286 33.3659C48.2226 32.1841 48.7672 30.7858 49.9451 30.2425C51.1229 29.6993 52.4879 30.217 52.994 31.3987L57.8855 42.8224C58.0589 43.2274 58.1344 43.6707 58.1057 44.1161C58.0771 44.5615 57.9452 44.9963 57.7207 45.3851L51.8627 55.5316C51.2023 56.6753 49.8642 57.2275 48.6314 56.8651L42.2256 54.9816C41.4062 54.7406 40.6193 54.4036 39.8807 53.9772L32.3801 49.6468C31.2912 49.018 30.9244 47.6089 31.5479 46.481ZM46.0314 33.2086L48.5751 34.6772L48.1316 33.6412C47.3948 31.9207 48.41 29.8827 50.2568 29.4489L50.0418 27.724C49.879 26.4184 48.686 25.487 47.398 25.7099C46.1498 25.9259 45.2718 27.1133 45.4301 28.384L46.0314 33.2086ZM65.9035 44.4801L71.8819 33.3185C72.5003 32.1638 72.0914 30.7425 70.9685 30.1437C69.8455 29.545 68.4339 29.9957 67.8155 31.1504L66.3092 33.963L64.597 20.2257C64.4386 18.9549 63.3031 18.0762 62.0489 18.2438C60.7547 18.4167 59.8341 19.672 59.9969 20.9777L61.2681 31.1768L60.8074 31.2474L59.2403 18.6738C59.0819 17.4031 57.9463 16.5244 56.6922 16.6919C55.3979 16.8648 54.4774 18.1202 54.6401 19.4259L56.2016 31.9534L55.741 32.024L54.4568 21.7207C54.2984 20.4499 53.1628 19.5712 51.9086 19.7388C50.6144 19.9117 49.6939 21.167 49.8566 22.4727L50.7172 29.3774C51.9327 29.2876 53.0902 29.9533 53.5912 31.1233L58.4827 42.5469C58.915 43.5567 58.8391 44.7383 58.2794 45.7076L57.5739 46.9297L63.812 45.9735C64.2479 45.9067 64.6646 45.7365 65.0281 45.477C65.3916 45.2175 65.6916 44.8759 65.9035 44.4801Z" fill="white"/>
<path d="M89.2421 47.436C88.7514 47.436 88.3248 47.2547 87.9621 46.892C87.6208 46.5294 87.4501 46.1027 87.4501 45.612V25.9C87.4501 25.4094 87.6208 24.9827 87.9621 24.62C88.3248 24.2574 88.7514 24.076 89.2421 24.076H91.6101C92.1008 24.076 92.5168 24.2574 92.8581 24.62C93.2208 24.9827 93.4021 25.4094 93.4021 25.9V45.612C93.4021 46.1027 93.2208 46.5294 92.8581 46.892C92.5168 47.2547 92.1008 47.436 91.6101 47.436H89.2421ZM100.223 47.436C99.7327 47.436 99.306 47.2547 98.9433 46.892C98.602 46.5294 98.4313 46.1027 98.4313 45.612V32.62C98.4313 32.1294 98.602 31.7027 98.9433 31.34C99.306 30.9774 99.7327 30.796 100.223 30.796H101.535C102.047 30.796 102.474 30.9774 102.815 31.34C103.178 31.6814 103.37 32.108 103.391 32.62L103.423 32.876C103.423 32.8974 103.434 32.908 103.455 32.908L103.519 32.844C104.906 31.2654 106.57 30.476 108.511 30.476C110.453 30.476 111.85 31.0307 112.703 32.14C113.557 33.228 113.983 35.0947 113.983 37.74V45.612C113.983 46.1027 113.802 46.5294 113.439 46.892C113.098 47.2547 112.682 47.436 112.191 47.436H110.783C110.293 47.436 109.866 47.2547 109.503 46.892C109.141 46.5294 108.959 46.1027 108.959 45.612V37.9C108.959 36.62 108.789 35.7454 108.447 35.276C108.106 34.7854 107.487 34.54 106.591 34.54C105.845 34.54 105.151 34.8494 104.511 35.468C103.893 36.0654 103.583 36.716 103.583 37.42V45.612C103.583 46.1027 103.402 46.5294 103.039 46.892C102.698 47.2547 102.282 47.436 101.791 47.436H100.223ZM120.68 47.436C120.19 47.436 119.763 47.2547 119.4 46.892C119.038 46.5294 118.856 46.1027 118.856 45.612V32.62C118.856 32.1294 119.038 31.7027 119.4 31.34C119.763 30.9774 120.19 30.796 120.68 30.796H122.472C122.963 30.796 123.39 30.9774 123.752 31.34C124.115 31.7027 124.296 32.1294 124.296 32.62V45.612C124.296 46.1027 124.115 46.5294 123.752 46.892C123.39 47.2547 122.963 47.436 122.472 47.436H120.68ZM120.68 27.596C120.19 27.596 119.763 27.4147 119.4 27.052C119.038 26.6894 118.856 26.2627 118.856 25.772V25.26C118.856 24.7694 119.038 24.3427 119.4 23.98C119.763 23.6174 120.19 23.436 120.68 23.436H122.472C122.963 23.436 123.39 23.6174 123.752 23.98C124.115 24.3427 124.296 24.7694 124.296 25.26V25.772C124.296 26.2627 124.115 26.6894 123.752 27.052C123.39 27.4147 122.963 27.596 122.472 27.596H120.68ZM136.73 47.756C133.978 47.756 131.866 47.0307 130.394 45.58C128.922 44.1294 128.186 41.9747 128.186 39.116C128.186 36.3214 128.89 34.188 130.298 32.716C131.728 31.2227 133.765 30.476 136.41 30.476C137.285 30.476 138.448 30.572 139.898 30.764C140.432 30.8494 140.858 31.0947 141.178 31.5C141.52 31.884 141.69 32.3427 141.69 32.876V33.196C141.69 33.644 141.509 34.0067 141.146 34.284C140.784 34.5614 140.378 34.6574 139.93 34.572C139.056 34.4227 138.149 34.348 137.21 34.348C135.994 34.348 135.088 34.732 134.49 35.5C133.914 36.2467 133.626 37.452 133.626 39.116C133.626 40.8227 133.936 42.0494 134.554 42.796C135.194 43.5214 136.186 43.884 137.53 43.884C138.533 43.884 139.429 43.7987 140.218 43.628C140.666 43.5214 141.061 43.6067 141.402 43.884C141.765 44.1614 141.946 44.524 141.946 44.972V45.292C141.946 45.8254 141.776 46.3054 141.434 46.732C141.093 47.1374 140.666 47.3827 140.154 47.468C138.981 47.66 137.84 47.756 136.73 47.756ZM148.649 47.436C148.158 47.436 147.732 47.2547 147.369 46.892C147.006 46.5294 146.825 46.1027 146.825 45.612V32.62C146.825 32.1294 147.006 31.7027 147.369 31.34C147.732 30.9774 148.158 30.796 148.649 30.796H150.441C150.932 30.796 151.358 30.9774 151.721 31.34C152.084 31.7027 152.265 32.1294 152.265 32.62V45.612C152.265 46.1027 152.084 46.5294 151.721 46.892C151.358 47.2547 150.932 47.436 150.441 47.436H148.649ZM148.649 27.596C148.158 27.596 147.732 27.4147 147.369 27.052C147.006 26.6894 146.825 26.2627 146.825 25.772V25.26C146.825 24.7694 147.006 24.3427 147.369 23.98C147.732 23.6174 148.158 23.436 148.649 23.436H150.441C150.932 23.436 151.358 23.6174 151.721 23.98C152.084 24.3427 152.265 24.7694 152.265 25.26V25.772C152.265 26.2627 152.084 26.6894 151.721 27.052C151.358 27.4147 150.932 27.596 150.441 27.596H148.649ZM165.115 39.82C162.512 39.82 161.211 40.62 161.211 42.22C161.211 42.796 161.382 43.2547 161.723 43.596C162.064 43.916 162.523 44.076 163.099 44.076C164.123 44.076 164.955 43.756 165.595 43.116C166.235 42.4547 166.555 41.58 166.555 40.492V40.108C166.555 39.916 166.459 39.82 166.267 39.82H165.115ZM161.531 47.756C160.059 47.756 158.843 47.2867 157.883 46.348C156.944 45.388 156.475 44.1507 156.475 42.636C156.475 38.7534 159.355 36.812 165.115 36.812H166.267C166.459 36.812 166.555 36.7267 166.555 36.556V36.396C166.555 35.5854 166.342 34.9987 165.915 34.636C165.51 34.2734 164.816 34.092 163.835 34.092C162.534 34.092 160.976 34.2947 159.163 34.7C158.715 34.7854 158.31 34.6894 157.947 34.412C157.606 34.1347 157.435 33.772 157.435 33.324V33.26C157.435 32.7267 157.595 32.2467 157.915 31.82C158.256 31.372 158.683 31.1054 159.195 31.02C161.072 30.6574 162.694 30.476 164.059 30.476C166.854 30.476 168.827 30.9774 169.979 31.98C171.152 32.9827 171.739 34.6467 171.739 36.972V45.612C171.739 46.1027 171.558 46.5294 171.195 46.892C170.832 47.2547 170.406 47.436 169.915 47.436H168.731C168.219 47.436 167.782 47.2654 167.419 46.924C167.056 46.5614 166.864 46.124 166.843 45.612V45.26C166.843 45.2387 166.832 45.228 166.811 45.228C166.768 45.228 166.747 45.2387 166.747 45.26C165.403 46.924 163.664 47.756 161.531 47.756ZM177.598 47.436C177.108 47.436 176.681 47.2547 176.318 46.892C175.977 46.5294 175.806 46.1027 175.806 45.612V32.62C175.806 32.1294 175.977 31.7027 176.318 31.34C176.681 30.9774 177.108 30.796 177.598 30.796H179.166C179.657 30.796 180.073 30.9774 180.414 31.34C180.777 31.7027 180.958 32.1294 180.958 32.62V33.964C180.958 33.9854 180.969 33.996 180.99 33.996C181.033 33.996 181.054 33.9854 181.054 33.964C182.377 32.1934 184.222 31.1587 186.59 30.86C187.081 30.796 187.497 30.9454 187.838 31.308C188.201 31.6707 188.382 32.108 188.382 32.62V32.876C188.382 33.3667 188.201 33.7934 187.838 34.156C187.497 34.5187 187.07 34.7214 186.558 34.764C184.83 34.956 183.486 35.5534 182.526 36.556C181.588 37.5374 181.118 38.8174 181.118 40.396V45.612C181.118 46.1027 180.937 46.5294 180.574 46.892C180.233 47.2547 179.817 47.436 179.326 47.436H177.598Z" fill="white"/>
<rect x="1.5" y="1.5" width="211.538" height="67.8719" rx="10.5" stroke="url(#paint1_linear)" stroke-width="3"/>
<defs>
<linearGradient id="paint0_linear" x1="0" y1="0" x2="42.2174" y2="127.797" gradientUnits="userSpaceOnUse">
<stop stop-color="#4FEC6A"/>
<stop offset="1" stop-color="#20CB3D"/>
</linearGradient>
<linearGradient id="paint1_linear" x1="0" y1="0" x2="42.2174" y2="127.797" gradientUnits="userSpaceOnUse">
<stop stop-color="#4FEC6A"/>
<stop offset="1" stop-color="#20CB3D"/>
</linearGradient>
</defs>
</svg>
