<svg id="eqLPWV7JE3c1" xmlns="http://www.w3.org/2000/svg" xmlns:xlink="http://www.w3.org/1999/xlink" viewBox="0 0 137 138" shape-rendering="geometricPrecision" text-rendering="geometricPrecision"><style><![CDATA[#eqLPWV7JE3c2_ts {animation: eqLPWV7JE3c2_ts__ts 2000ms linear infinite normal forwards}@keyframes eqLPWV7JE3c2_ts__ts { 0% {transform: translate(68.500000px,69px) rotate(180deg) scale(0.800000,0.800000)} 60.500000% {transform: translate(68.500000px,69px) rotate(180deg) scale(1,1)} 100% {transform: translate(68.500000px,69px) rotate(180deg) scale(1,1)}} #eqLPWV7JE3c2 {animation: eqLPWV7JE3c2_c_o 2000ms linear infinite normal forwards}@keyframes eqLPWV7JE3c2_c_o { 0% {opacity: 1;animation-timing-function: cubic-bezier(0.420000,0,1,1)} 45.500000% {opacity: 0.160000} 100% {opacity: 0.160000}} #eqLPWV7JE3c3_ts {animation: eqLPWV7JE3c3_ts__ts 2000ms linear infinite normal forwards}@keyframes eqLPWV7JE3c3_ts__ts { 0% {transform: translate(68.500000px,69px) rotate(180deg) scale(0.950000,0.950000);animation-timing-function: cubic-bezier(0.420000,0,1,1)} 50% {transform: translate(68.500000px,69px) rotate(180deg) scale(1,1);animation-timing-function: cubic-bezier(0.420000,0,0.580000,1)} 99% {transform: translate(68.500000px,69px) rotate(180deg) scale(0.950000,0.950000)} 100% {transform: translate(68.500000px,69px) rotate(180deg) scale(0.950000,0.950000)}}]]></style><g id="eqLPWV7JE3c2_ts" transform="translate(68.500000,69) rotate(180) scale(0.800000,0.800000)"><ellipse id="eqLPWV7JE3c2" rx="68.500000" ry="69" transform="translate(0,0)" fill="rgb(50,55,139)" fill-opacity="0.2" stroke="none" stroke-width="1"/></g><g id="eqLPWV7JE3c3_ts" transform="translate(68.500000,69) rotate(180) scale(0.950000,0.950000)"><ellipse id="eqLPWV7JE3c3" rx="57.500000" ry="58" transform="translate(0,0)" fill="rgb(50,63,147)" stroke="none" stroke-width="1"/></g><path id="eqLPWV7JE3c4" d="M58.451900,49.533400C58.324200,50.148600,57.900100,50.652500,57.806000,51.397800C59.097900,50.811100,60.308100,50.251600,61.526200,49.709900C63.608200,48.810100,65.633100,47.769400,67.588400,46.594300C69.019900,45.713800,70.590800,45.476500,72.227600,45.562900C73.537900,45.632200,74.850700,45.651100,76.162000,45.697600C76.411100,45.660900,76.664600,45.712900,76.882500,45.845400C76.709900,46.070700,76.435300,46.074100,76.229600,46.215900C75.906600,46.440200,75.800300,46.679600,76.236300,46.867600C77.946100,47.602900,79.576400,48.581500,81.468900,48.765600C82.197300,48.836200,82.591900,48.630600,82.938900,47.945000C83.305100,47.221600,83.302400,46.417600,83.420400,45.639300C83.458700,45.386700,83.412700,45.024600,83.726500,45.000900C84.012000,44.979700,84.085300,45.328100,84.166800,45.570500C84.424800,46.337000,84.651700,47.114200,84.847500,47.902000C84.956000,48.306400,84.961700,48.734000,84.864100,49.141500C84.766400,49.549000,84.568800,49.922100,84.291200,50.223200C83.691500,50.937900,82.888300,51.427300,82.002500,51.617800C80.494100,51.954100,79.027600,52.474000,77.632400,53.167000C77.483300,53.243500,77.251000,53.238200,77.240300,53.529700C77.570200,53.596900,77.839000,53.188300,78.174400,53.390500C78.171200,53.443000,78.181400,53.515800,78.164800,53.523600C77.353600,53.901500,77.375400,54.550600,77.584100,55.318400C77.868000,56.235000,77.855600,57.225300,77.548900,58.133600C76.826100,60.263900,78.187100,63.090900,80.167000,63.903900C80.658000,64.087800,81.126300,64.333500,81.561800,64.635700C81.942400,64.916400,81.997100,65.223100,81.735700,65.640300C81.093200,66.704600,80.185900,67.561400,79.113300,68.117000C78.146100,68.608900,78.026400,68.822900,78.123800,69.965900C78.165300,70.451900,77.918300,70.585600,77.542400,70.627400C77.420700,70.640700,77.272100,70.627300,77.223100,70.776800C77.165800,70.953500,77.333500,70.986800,77.427900,71.050400C77.666100,71.214000,77.731000,71.428200,77.550600,71.660400C76.421900,73.113200,76.201500,74.882500,75.944400,76.651300C75.750900,77.982600,75.437100,78.153600,74.158800,77.990500C72.711200,77.818900,71.276300,77.543400,69.864100,77.166000C69.666000,77.091200,69.448800,77.096100,69.253800,77.179600C69.058900,77.263200,68.899800,77.419700,68.807000,77.619200C68.408400,78.341800,68.057100,79.092500,67.755600,79.865900C67.695700,79.981200,67.675900,80.114900,67.699400,80.244000C67.723000,80.373100,67.788400,80.489500,67.884500,80.573000C68.016100,80.700400,68.122300,80.854200,68.196800,81.025600C68.271300,81.197000,68.312600,81.382300,68.318300,81.570800C68.318300,82.196600,68.359000,82.803400,68.742600,83.325200C68.783900,83.381100,68.805500,83.528700,68.774400,83.555700C68.591300,83.716900,68.495700,83.450700,68.342900,83.435400C68.289200,83.377900,68.230300,83.311500,68.162800,83.401800C68.149800,83.418900,68.207000,83.494800,68.231800,83.543400C69.341600,84.516200,69.843500,85.809700,70.155300,87.270000C70.566200,89.192100,71.115800,91.081400,71.606000,92.984600L54.503900,92.999800C54.316000,92.999800,54.124000,93.012700,54,92.816000C54.349300,90.820400,55.273800,89.117000,56.362700,87.484000C57.870600,85.223400,58.941100,82.717800,59.952600,80.181200C60.114100,79.776100,60.047500,79.530500,59.652900,79.345400C59.277300,79.169000,59.239500,78.846500,59.409900,78.462400C59.762800,77.713900,60.158100,76.988500,60.593600,76.290200C60.869100,75.823400,61.301600,75.881700,61.713600,75.959400C61.986800,76.011900,62.178400,76.034200,62.302900,75.694500C62.895200,74.074600,63.558800,72.482200,63.882500,70.765500C63.946500,70.397200,63.894100,70.016800,63.733400,69.683100C62.254400,66.224300,60.354500,63.067500,57.829100,60.346600C56.763700,59.165600,55.863200,57.829900,55.154800,56.380000C55.091200,56.254500,55.005700,56.141100,54.909600,55.986200C54.676500,56.376100,54.876000,56.710900,54.906300,57.104800C54.818300,57.062500,54.741700,56.997400,54.683700,56.915600C54.625800,56.833700,54.588300,56.737800,54.574700,56.636600C54.388800,55.885300,54.667800,55.139800,54.584100,54.365000C54.493400,53.528100,55.161200,53.009500,55.769400,52.554700C56.054300,52.295400,56.276400,51.968000,56.417400,51.599700C56.852900,50.691300,57.545900,49.949300,58.399800,49.477500C58.416700,49.494500,58.434300,49.514500,58.451900,49.533400ZM68.002000,83.113300C67.968000,83.145300,67.916800,83.180200,67.921300,83.192000C67.944200,83.241000,67.971900,83.287300,68.004000,83.330100C68.030600,83.308400,68.082500,83.277600,68.078500,83.266600C68.057600,83.213100,68.032000,83.161700,68.002000,83.113300Z" fill="rgb(255,255,255)" stroke="none" stroke-width="1"/></svg>