<svg width="36" height="28" viewBox="0 0 36 28" fill="none" xmlns="http://www.w3.org/2000/svg">
<path d="M35.5018 15.2386L23.5012 27.4866C22.4297 28.5801 20.5724 27.8146 20.5724 26.2472V19.2484H10.8577C9.90763 19.2484 9.14331 18.4683 9.14331 17.4986V10.4998C9.14331 9.53018 9.90763 8.7501 10.8577 8.7501H20.5724V1.75126C20.5724 0.191102 22.4225 -0.581686 23.5012 0.511882L35.5018 12.7598C36.1661 13.4452 36.1661 14.5533 35.5018 15.2386ZM13.715 27.122V24.2059C13.715 23.7247 13.3292 23.331 12.8578 23.331H6.85748C5.59313 23.331 4.57166 22.2885 4.57166 20.9981V7.00039C4.57166 5.70998 5.59313 4.66744 6.85748 4.66744H12.8578C13.3292 4.66744 13.715 4.27376 13.715 3.79259V0.876405C13.715 0.395235 13.3292 0.00155058 12.8578 0.00155058H6.85748C3.07158 0.00155058 0 3.13645 0 7.00039V20.9981C0 24.862 3.07158 27.9969 6.85748 27.9969H12.8578C13.3292 27.9969 13.715 27.6032 13.715 27.122Z" fill="white"/>
</svg>
