<svg width="32" height="32" viewBox="0 0 32 32" fill="none" xmlns="http://www.w3.org/2000/svg">
<g clip-path="url(#clip0)">
<g filter="url(#filter0_di)">
<path d="M29.3988 0.0939805L9.40063 5.99961C8.99468 6.12712 8.63999 6.38078 8.3881 6.72372C8.13621 7.06665 8.00026 7.48098 8 7.90648V24.2446C7.34509 24.0856 6.67391 24.0034 6 23.9996C2.6875 23.9996 0 25.7909 0 27.9996C0 30.2084 2.6875 31.9996 6 31.9996C9.3125 31.9996 12 30.2084 12 27.9996V13.3946L28 8.7071V20.2452C27.3452 20.0857 26.674 20.0033 26 19.9996C22.6875 19.9996 20 21.7909 20 23.9996C20 26.2084 22.6875 27.9996 26 27.9996C29.3125 27.9996 32 26.209 32 23.9996V1.99961C31.9997 1.68563 31.9255 1.37614 31.7834 1.09617C31.6413 0.8162 31.4352 0.573625 31.1819 0.388076C30.9287 0.202527 30.6352 0.0792159 30.3255 0.0281233C30.0157 -0.0229694 29.6982 -0.000408322 29.3988 0.0939805Z" fill="url(#paint0_linear)"/>
</g>
</g>
<defs>
<filter id="filter0_di" x="-40" y="-24.9985" width="112" height="111.998" filterUnits="userSpaceOnUse" color-interpolation-filters="sRGB">
<feFlood flood-opacity="0" result="BackgroundImageFix"/>
<feColorMatrix in="SourceAlpha" type="matrix" values="0 0 0 0 0 0 0 0 0 0 0 0 0 0 0 0 0 0 127 0"/>
<feOffset dy="15"/>
<feGaussianBlur stdDeviation="20"/>
<feColorMatrix type="matrix" values="0 0 0 0 0.213889 0 0 0 0 0.666667 0 0 0 0 0.297848 0 0 0 0.25 0"/>
<feBlend mode="normal" in2="BackgroundImageFix" result="effect1_dropShadow"/>
<feBlend mode="normal" in="SourceGraphic" in2="effect1_dropShadow" result="shape"/>
<feColorMatrix in="SourceAlpha" type="matrix" values="0 0 0 0 0 0 0 0 0 0 0 0 0 0 0 0 0 0 127 0" result="hardAlpha"/>
<feOffset dy="14"/>
<feGaussianBlur stdDeviation="25"/>
<feComposite in2="hardAlpha" operator="arithmetic" k2="-1" k3="1"/>
<feColorMatrix type="matrix" values="0 0 0 0 0.364706 0 0 0 0 0.956863 0 0 0 0 0.47451 0 0 0 0.5 0"/>
<feBlend mode="normal" in2="shape" result="effect2_innerShadow"/>
</filter>
<linearGradient id="paint0_linear" x1="10.8449" y1="4.00123" x2="-1.6589" y2="36.9827" gradientUnits="userSpaceOnUse">
<stop stop-color="#4FEC6A"/>
<stop offset="1" stop-color="#20CB3D"/>
</linearGradient>
<clipPath id="clip0">
<rect width="32" height="32" fill="white"/>
</clipPath>
</defs>
</svg>
